<svg xmlns="http://www.w3.org/2000/svg" xmlns:xlink="http://www.w3.org/1999/xlink" width="1080" zoomAndPan="magnify" viewBox="0 0 810 1439.999935" height="1920" preserveAspectRatio="xMidYMid meet" version="1.0"><defs><g/><clipPath id="66187bb3b3"><path d="M 372 621 L 441 621 L 441 698 L 372 698 Z M 372 621 " clip-rule="nonzero"/></clipPath><clipPath id="0be536b6a0"><path d="M 373.757812 616.5 L 441.132812 620.5625 L 436.351562 699.917969 L 368.972656 695.855469 Z M 373.757812 616.5 " clip-rule="nonzero"/></clipPath><clipPath id="212f1730d5"><path d="M 373.757812 616.5 L 441.132812 620.5625 L 436.351562 699.917969 L 368.972656 695.855469 Z M 373.757812 616.5 " clip-rule="nonzero"/></clipPath></defs><g clip-path="url(#66187bb3b3)"><g clip-path="url(#0be536b6a0)"><g clip-path="url(#212f1730d5)"><path fill="#c41e4b" d="M 439.996094 631.777344 C 439.5625 625.285156 435.636719 620.230469 427.152344 622.1875 C 423.675781 622.976562 421 625.050781 418.109375 626.894531 C 412.527344 630.417969 407.960938 635.332031 404.863281 641.164062 C 403.695312 643.324219 402.375 645.402344 400.914062 647.878906 C 400.242188 646.976562 399.859375 646.542969 399.574219 646.054688 C 396.71875 641.0625 392.703125 637.15625 387.910156 634.125 C 385.699219 632.738281 383.195312 631.726562 380.722656 630.832031 C 379.78125 630.5 378.265625 630.605469 377.488281 631.144531 C 374.5625 633.183594 372.589844 636.0625 372.546875 639.703125 C 372.507812 642.25 372.722656 644.886719 373.378906 647.335938 C 376.300781 658.015625 380.679688 667.921875 388.765625 675.871094 C 392.222656 679.273438 395.496094 682.863281 398.746094 686.46875 C 401.941406 689.992188 405.574219 693.109375 409.550781 695.738281 C 413.242188 698.195312 415.679688 697.773438 417.808594 693.964844 C 419.894531 690.230469 421.773438 686.386719 423.726562 682.585938 C 428.273438 673.765625 431.636719 664.464844 434.597656 655.023438 C 436.199219 649.851562 437.632812 644.605469 438.949219 639.355469 C 439.550781 636.867188 440.160156 634.257812 439.996094 631.777344 Z M 439.996094 631.777344 " fill-opacity="1" fill-rule="nonzero"/></g></g></g><g fill="#c41e4b" fill-opacity="1"><g transform="translate(453.64107, 824.854784)"><g><path d="M 31.53125 -1.578125 L 15.046875 -4.859375 L 10.46875 2.09375 L -0.78125 -0.15625 L 24.1875 -35.703125 L 35.0625 -33.546875 L 44.546875 8.875 L 33.078125 6.59375 Z M 29.90625 -10.359375 L 27.40625 -23.84375 L 19.890625 -12.359375 Z M 29.90625 -10.359375 "/></g></g></g><g fill="#c41e4b" fill-opacity="1"><g transform="translate(502.096927, 833.807833)"><g><path d="M 8.484375 -41.40625 L 19.1875 -40.125 L 14.140625 1.703125 L 3.4375 0.421875 Z M 8.484375 -41.40625 "/></g></g></g><g fill="#c41e4b" fill-opacity="1"><g transform="translate(523.801927, 836.328983)"><g><path d="M 5.703125 -30.453125 L 16.46875 -29.65625 L 14.21875 1.046875 L 3.453125 0.25 Z M 11.328125 -33.453125 C 9.367188 -33.585938 7.820312 -34.242188 6.6875 -35.421875 C 5.5625 -36.609375 5.0625 -38.015625 5.1875 -39.640625 C 5.300781 -41.265625 6.003906 -42.578125 7.296875 -43.578125 C 8.585938 -44.585938 10.210938 -45.023438 12.171875 -44.890625 C 14.140625 -44.742188 15.6875 -44.109375 16.8125 -42.984375 C 17.9375 -41.859375 18.441406 -40.484375 18.328125 -38.859375 C 18.203125 -37.160156 17.492188 -35.796875 16.203125 -34.765625 C 14.921875 -33.742188 13.296875 -33.304688 11.328125 -33.453125 Z M 11.328125 -33.453125 "/></g></g></g><g fill="#c41e4b" fill-opacity="1"><g transform="translate(546.062296, 838.186422)"><g><path d="M 23.5625 -31.234375 C 27.394531 -31.222656 30.46875 -30.078125 32.78125 -27.796875 C 35.101562 -25.523438 36.257812 -22.101562 36.25 -17.53125 L 36.21875 0.078125 L 25.4375 0.046875 L 25.46875 -15.796875 C 25.476562 -19.992188 23.800781 -22.09375 20.4375 -22.09375 C 18.582031 -22.101562 17.09375 -21.503906 15.96875 -20.296875 C 14.84375 -19.085938 14.28125 -17.269531 14.28125 -14.84375 L 14.25 0.03125 L 3.46875 0 L 3.53125 -30.78125 L 13.796875 -30.75 L 13.796875 -27.390625 C 15.015625 -28.640625 16.457031 -29.59375 18.125 -30.25 C 19.789062 -30.90625 21.601562 -31.234375 23.5625 -31.234375 Z M 23.5625 -31.234375 "/></g></g></g><g fill="#c41e4b" fill-opacity="1"><g transform="translate(590.611505, 838.039994)"><g><path d="M 20.484375 -33.328125 C 24.304688 -33.679688 27.476562 -32.835938 30 -30.796875 C 32.519531 -28.753906 33.992188 -25.457031 34.421875 -20.90625 L 36.0625 -3.375 L 25.328125 -2.375 L 23.859375 -18.15625 C 23.460938 -22.332031 21.585938 -24.265625 18.234375 -23.953125 C 16.390625 -23.773438 14.96875 -23.03125 13.96875 -21.71875 C 12.96875 -20.414062 12.578125 -18.554688 12.796875 -16.140625 L 14.1875 -1.328125 L 3.453125 -0.328125 L 0.578125 -30.96875 L 10.796875 -31.921875 L 11.125 -28.578125 C 12.21875 -29.941406 13.5625 -31.03125 15.15625 -31.84375 C 16.757812 -32.65625 18.535156 -33.148438 20.484375 -33.328125 Z M 20.484375 -33.328125 "/></g></g></g><g fill="#c41e4b" fill-opacity="1"><g transform="translate(634.86768, 833.600032)"><g><path d="M 31.5 -21.5 C 31.519531 -21.425781 31.628906 -20.539062 31.828125 -18.84375 L 9.828125 -14.71875 C 10.578125 -13.25 11.671875 -12.210938 13.109375 -11.609375 C 14.546875 -11.015625 16.234375 -10.898438 18.171875 -11.265625 C 19.617188 -11.535156 20.832031 -11.972656 21.8125 -12.578125 C 22.789062 -13.179688 23.738281 -14.054688 24.65625 -15.203125 L 31.3125 -10.4375 C 28.988281 -6.613281 25.003906 -4.171875 19.359375 -3.109375 C 15.816406 -2.441406 12.578125 -2.523438 9.640625 -3.359375 C 6.710938 -4.203125 4.289062 -5.675781 2.375 -7.78125 C 0.457031 -9.882812 -0.78125 -12.441406 -1.34375 -15.453125 C -1.90625 -18.429688 -1.6875 -21.238281 -0.6875 -23.875 C 0.300781 -26.507812 1.929688 -28.734375 4.203125 -30.546875 C 6.484375 -32.359375 9.207031 -33.5625 12.375 -34.15625 C 15.382812 -34.71875 18.234375 -34.601562 20.921875 -33.8125 C 23.617188 -33.03125 25.90625 -31.59375 27.78125 -29.5 C 29.65625 -27.40625 30.894531 -24.738281 31.5 -21.5 Z M 13.859375 -26.625 C 12.210938 -26.320312 10.925781 -25.597656 10 -24.453125 C 9.070312 -23.316406 8.613281 -21.925781 8.625 -20.28125 L 21.015625 -22.59375 C 20.410156 -24.132812 19.472656 -25.269531 18.203125 -26 C 16.941406 -26.726562 15.492188 -26.9375 13.859375 -26.625 Z M 13.859375 -26.625 "/></g></g></g><g fill="#c41e4b" fill-opacity="1"><g transform="translate(200.511807, 838.512842)"><g><path d="M 23.34375 -23.0625 L 4.53125 -13.46875 L 5.15625 -2.640625 L -0.0625 0.03125 L -2.109375 -43.5625 L 2.90625 -46.125 L 37.078125 -18.921875 L 31.75 -16.21875 Z M 19.5 -26.234375 L 3.015625 -39.65625 L 4.234375 -18.4375 Z M 19.5 -26.234375 "/></g></g></g><g fill="#c41e4b" fill-opacity="1"><g transform="translate(238.367036, 820.236803)"><g><path d="M -8.8125 -41.515625 L -3.65625 -43.28125 L 10.046875 -3.453125 L 4.890625 -1.6875 Z M -8.8125 -41.515625 "/></g></g></g><g fill="#c41e4b" fill-opacity="1"><g transform="translate(254.001691, 814.31839)"><g><path d="M 9.53125 -33.046875 C 13.601562 -33.898438 16.929688 -33.554688 19.515625 -32.015625 C 22.097656 -30.472656 23.804688 -27.71875 24.640625 -23.75 L 28.390625 -5.96875 L 23.328125 -4.90625 L 22.515625 -8.796875 C 21.910156 -7.234375 20.863281 -5.914062 19.375 -4.84375 C 17.882812 -3.78125 16.007812 -3.007812 13.75 -2.53125 C 10.457031 -1.84375 7.648438 -2.085938 5.328125 -3.265625 C 3.003906 -4.441406 1.570312 -6.320312 1.03125 -8.90625 C 0.476562 -11.5 0.976562 -13.78125 2.53125 -15.75 C 4.09375 -17.726562 6.929688 -19.148438 11.046875 -20.015625 L 19.5 -21.796875 L 19.28125 -22.859375 C 18.789062 -25.160156 17.75 -26.78125 16.15625 -27.71875 C 14.5625 -28.664062 12.472656 -28.863281 9.890625 -28.3125 C 8.140625 -27.945312 6.488281 -27.300781 4.9375 -26.375 C 3.394531 -25.445312 2.15625 -24.378906 1.21875 -23.171875 L -1.859375 -26.71875 C -0.585938 -28.25 1.03125 -29.5625 3 -30.65625 C 4.976562 -31.75 7.15625 -32.546875 9.53125 -33.046875 Z M 13.765625 -6.84375 C 15.796875 -7.269531 17.457031 -8.09375 18.75 -9.3125 C 20.039062 -10.53125 20.847656 -12.046875 21.171875 -13.859375 L 20.296875 -17.984375 L 12.0625 -16.25 C 7.550781 -15.300781 5.617188 -13.304688 6.265625 -10.265625 C 6.578125 -8.773438 7.394531 -7.722656 8.71875 -7.109375 C 10.039062 -6.503906 11.722656 -6.414062 13.765625 -6.84375 Z M 13.765625 -6.84375 "/></g></g></g><g fill="#c41e4b" fill-opacity="1"><g transform="translate(287.13302, 807.129391)"><g><path d="M 20.21875 -31.0625 C 24.039062 -31.1875 27.113281 -30.179688 29.4375 -28.046875 C 31.769531 -25.910156 33.003906 -22.703125 33.140625 -18.421875 L 33.71875 -1.125 L 28.265625 -0.9375 L 27.71875 -17.609375 C 27.613281 -20.523438 26.835938 -22.695312 25.390625 -24.125 C 23.941406 -25.5625 21.910156 -26.238281 19.296875 -26.15625 C 16.347656 -26.050781 14.050781 -25.109375 12.40625 -23.328125 C 10.769531 -21.554688 10.003906 -19.0625 10.109375 -15.84375 L 10.625 -0.359375 L 5.171875 -0.171875 L 4.171875 -30.25 L 9.390625 -30.421875 L 9.546875 -25.875 C 10.585938 -27.46875 12.03125 -28.707031 13.875 -29.59375 C 15.71875 -30.488281 17.832031 -30.976562 20.21875 -31.0625 Z M 20.21875 -31.0625 "/></g></g></g><g fill="#c41e4b" fill-opacity="1"><g transform="translate(326.419217, 806.64628)"><g/></g></g><g fill="#c41e4b" fill-opacity="1"><g transform="translate(343.226624, 808.397313)"><g/></g></g><g fill="#c41e4b" fill-opacity="1"><g transform="translate(359.080091, 810.546829)"><g><path d="M 33.125 11.453125 L 29.71875 4.796875 C 25.320312 6.941406 20.585938 7.191406 15.515625 5.546875 C 12.992188 4.722656 10.859375 3.566406 9.109375 2.078125 C 7.367188 0.585938 6.175781 -1.082031 5.53125 -2.9375 C 4.882812 -4.800781 4.875 -6.6875 5.5 -8.59375 C 6.25 -10.894531 7.625 -12.707031 9.625 -14.03125 C 11.632812 -15.351562 14.578125 -16.414062 18.453125 -17.21875 C 17.335938 -19.414062 16.65625 -21.289062 16.40625 -22.84375 C 16.15625 -24.394531 16.265625 -25.890625 16.734375 -27.328125 C 17.566406 -29.878906 19.160156 -31.628906 21.515625 -32.578125 C 23.867188 -33.535156 26.597656 -33.507812 29.703125 -32.5 C 32.578125 -31.550781 34.628906 -30.097656 35.859375 -28.140625 C 37.097656 -26.191406 37.320312 -23.992188 36.53125 -21.546875 C 35.90625 -19.628906 34.722656 -18.117188 32.984375 -17.015625 C 31.242188 -15.910156 28.671875 -15 25.265625 -14.28125 L 31.5625 -1.953125 C 33.3125 -3.648438 34.835938 -5.679688 36.140625 -8.046875 L 39.84375 -5.359375 C 38.113281 -2.253906 36.078125 0.269531 33.734375 2.21875 L 37.15625 8.953125 Z M 28.46875 -28.703125 C 26.769531 -29.253906 25.304688 -29.257812 24.078125 -28.71875 C 22.847656 -28.1875 22.007812 -27.234375 21.5625 -25.859375 C 21.25 -24.890625 21.207031 -23.875 21.4375 -22.8125 C 21.664062 -21.75 22.28125 -20.191406 23.28125 -18.140625 C 26.226562 -18.742188 28.34375 -19.390625 29.625 -20.078125 C 30.90625 -20.773438 31.738281 -21.71875 32.125 -22.90625 C 32.539062 -24.175781 32.429688 -25.328125 31.796875 -26.359375 C 31.160156 -27.398438 30.050781 -28.179688 28.46875 -28.703125 Z M 17.25 1.3125 C 20.988281 2.539062 24.445312 2.363281 27.625 0.78125 L 20.375 -13.421875 C 17.3125 -12.828125 15.066406 -12.078125 13.640625 -11.171875 C 12.210938 -10.265625 11.242188 -9.039062 10.734375 -7.5 C 10.148438 -5.695312 10.457031 -3.984375 11.65625 -2.359375 C 12.863281 -0.734375 14.726562 0.488281 17.25 1.3125 Z M 17.25 1.3125 "/></g></g></g></svg>